<?xml version="1.0" encoding="UTF-8" standalone="no"?>
<!DOCTYPE svg PUBLIC "-//W3C//DTD SVG 1.1//EN"
 "http://www.w3.org/Graphics/SVG/1.1/DTD/svg11.dtd">
<!-- Generated by graphviz version 2.40.1 (20161225.0304)
 -->
<!-- Title: %3 Pages: 1 -->
<svg width="523pt" height="796pt"
 viewBox="0.00 0.00 523.00 796.00" xmlns="http://www.w3.org/2000/svg" xmlns:xlink="http://www.w3.org/1999/xlink">
<g id="graph0" class="graph" transform="scale(1 1) rotate(0) translate(4 792)">
<title>%3</title>
<polygon fill="#ffffff" stroke="transparent" points="-4,4 -4,-792 519,-792 519,4 -4,4"/>
<!-- 5 -->
<g id="node1" class="node">
<title>5</title>
<g id="a_node1"><a xlink:title="/home/atom/atcoder/ABC_144/C/test.py">
<polygon fill="#ff0000" stroke="#ff0000" points="218.5,-328 109.5,-328 109.5,-276 218.5,-276 218.5,-328"/>
<text text-anchor="middle" x="164" y="-316" font-family="Arial" font-size="10.00" fill="#ffffff">test:42:test_compute</text>
<text text-anchor="middle" x="164" y="-305" font-family="Arial" font-size="10.00" fill="#ffffff">99.96%</text>
<text text-anchor="middle" x="164" y="-294" font-family="Arial" font-size="10.00" fill="#ffffff">(0.00%)</text>
<text text-anchor="middle" x="164" y="-283" font-family="Arial" font-size="10.00" fill="#ffffff">3×</text>
</a>
</g>
</g>
<!-- 217 -->
<g id="node2" class="node">
<title>217</title>
<g id="a_node2"><a xlink:title="/home/atom/atcoder/ABC_144/C/test.py">
<polygon fill="#ff0000" stroke="#ff0000" points="216.5,-236 129.5,-236 129.5,-184 216.5,-184 216.5,-236"/>
<text text-anchor="middle" x="173" y="-224" font-family="Arial" font-size="10.00" fill="#ffffff">test:24:assertIO</text>
<text text-anchor="middle" x="173" y="-213" font-family="Arial" font-size="10.00" fill="#ffffff">99.95%</text>
<text text-anchor="middle" x="173" y="-202" font-family="Arial" font-size="10.00" fill="#ffffff">(0.00%)</text>
<text text-anchor="middle" x="173" y="-191" font-family="Arial" font-size="10.00" fill="#ffffff">3×</text>
</a>
</g>
</g>
<!-- 5&#45;&gt;217 -->
<g id="edge1" class="edge">
<title>5&#45;&gt;217</title>
<path fill="none" stroke="#ff0000" stroke-width="4" d="M166.555,-275.8826C167.4575,-266.6565 168.4893,-256.1091 169.4589,-246.1983"/>
<polygon fill="#ff0000" stroke="#ff0000" stroke-width="4" points="172.9483,-246.476 170.4386,-236.1827 165.9816,-245.7944 172.9483,-246.476"/>
<text text-anchor="middle" x="187" y="-259" font-family="Arial" font-size="10.00" fill="#ff0000">99.95%</text>
<text text-anchor="middle" x="187" y="-248" font-family="Arial" font-size="10.00" fill="#ff0000">3×</text>
</g>
<!-- 336 -->
<g id="node14" class="node">
<title>336</title>
<g id="a_node14"><a xlink:title="~">
<polygon fill="#ff0000" stroke="#ff0000" points="289.5,-144 62.5,-144 62.5,-92 289.5,-92 289.5,-144"/>
<text text-anchor="middle" x="176" y="-132" font-family="Arial" font-size="10.00" fill="#ffffff">~:0:&lt;method &#39;enable&#39; of &#39;_lsprof.Profiler&#39; objects&gt;</text>
<text text-anchor="middle" x="176" y="-121" font-family="Arial" font-size="10.00" fill="#ffffff">99.95%</text>
<text text-anchor="middle" x="176" y="-110" font-family="Arial" font-size="10.00" fill="#ffffff">(99.95%)</text>
<text text-anchor="middle" x="176" y="-99" font-family="Arial" font-size="10.00" fill="#ffffff">3×</text>
</a>
</g>
</g>
<!-- 217&#45;&gt;336 -->
<g id="edge10" class="edge">
<title>217&#45;&gt;336</title>
<path fill="none" stroke="#ff0000" stroke-width="4" d="M173.8517,-183.8826C174.1525,-174.6565 174.4964,-164.1091 174.8196,-154.1983"/>
<polygon fill="#ff0000" stroke="#ff0000" stroke-width="4" points="178.3183,-154.2915 175.1462,-144.1827 171.3221,-154.0633 178.3183,-154.2915"/>
<text text-anchor="middle" x="192" y="-167" font-family="Arial" font-size="10.00" fill="#ff0000">99.95%</text>
<text text-anchor="middle" x="192" y="-156" font-family="Arial" font-size="10.00" fill="#ff0000">3×</text>
</g>
<!-- 25 -->
<g id="node3" class="node">
<title>25</title>
<g id="a_node3"><a xlink:title="/home/atom/anaconda3/lib/python3.7/site&#45;packages/_pytest/runner.py">
<polygon fill="#ff0000" stroke="#ff0000" points="486.5,-420 381.5,-420 381.5,-368 486.5,-368 486.5,-420"/>
<text text-anchor="middle" x="434" y="-408" font-family="Arial" font-size="10.00" fill="#ffffff">runner:213:from_call</text>
<text text-anchor="middle" x="434" y="-397" font-family="Arial" font-size="10.00" fill="#ffffff">99.98%</text>
<text text-anchor="middle" x="434" y="-386" font-family="Arial" font-size="10.00" fill="#ffffff">(0.00%)</text>
<text text-anchor="middle" x="434" y="-375" font-family="Arial" font-size="10.00" fill="#ffffff">6×</text>
</a>
</g>
</g>
<!-- 260 -->
<g id="node4" class="node">
<title>260</title>
<g id="a_node4"><a xlink:title="/home/atom/anaconda3/lib/python3.7/site&#45;packages/_pytest/runner.py">
<polygon fill="#ff0000" stroke="#ff0000" points="485.5,-328 376.5,-328 376.5,-276 485.5,-276 485.5,-328"/>
<text text-anchor="middle" x="431" y="-316" font-family="Arial" font-size="10.00" fill="#ffffff">runner:192:&lt;lambda&gt;</text>
<text text-anchor="middle" x="431" y="-305" font-family="Arial" font-size="10.00" fill="#ffffff">99.98%</text>
<text text-anchor="middle" x="431" y="-294" font-family="Arial" font-size="10.00" fill="#ffffff">(0.00%)</text>
<text text-anchor="middle" x="431" y="-283" font-family="Arial" font-size="10.00" fill="#ffffff">6×</text>
</a>
</g>
</g>
<!-- 25&#45;&gt;260 -->
<g id="edge2" class="edge">
<title>25&#45;&gt;260</title>
<path fill="none" stroke="#ff0000" stroke-width="4" d="M433.1483,-367.8826C432.8475,-358.6565 432.5036,-348.1091 432.1804,-338.1983"/>
<polygon fill="#ff0000" stroke="#ff0000" stroke-width="4" points="435.6779,-338.0633 431.8538,-328.1827 428.6817,-338.2915 435.6779,-338.0633"/>
<text text-anchor="middle" x="449" y="-351" font-family="Arial" font-size="10.00" fill="#ff0000">99.98%</text>
<text text-anchor="middle" x="449" y="-340" font-family="Arial" font-size="10.00" fill="#ff0000">6×</text>
</g>
<!-- 196 -->
<g id="node12" class="node">
<title>196</title>
<g id="a_node12"><a xlink:title="/home/atom/anaconda3/lib/python3.7/site&#45;packages/pluggy/hooks.py">
<polygon fill="#ff0000" stroke="#ff0000" points="408.5,-236 307.5,-236 307.5,-184 408.5,-184 408.5,-236"/>
<text text-anchor="middle" x="358" y="-224" font-family="Arial" font-size="10.00" fill="#ffffff">hooks:275:__call__</text>
<text text-anchor="middle" x="358" y="-213" font-family="Arial" font-size="10.00" fill="#ffffff">99.99%</text>
<text text-anchor="middle" x="358" y="-202" font-family="Arial" font-size="10.00" fill="#ffffff">(0.00%)</text>
<text text-anchor="middle" x="358" y="-191" font-family="Arial" font-size="10.00" fill="#ffffff">27×</text>
</a>
</g>
</g>
<!-- 260&#45;&gt;196 -->
<g id="edge13" class="edge">
<title>260&#45;&gt;196</title>
<path fill="none" stroke="#ff0000" stroke-width="4" d="M410.2764,-275.8826C402.4163,-265.9767 393.3475,-254.5476 384.9931,-244.0187"/>
<polygon fill="#ff0000" stroke="#ff0000" stroke-width="4" points="387.733,-241.8408 378.7754,-236.1827 382.2495,-246.1918 387.733,-241.8408"/>
<text text-anchor="middle" x="421" y="-259" font-family="Arial" font-size="10.00" fill="#ff0000">99.98%</text>
<text text-anchor="middle" x="421" y="-248" font-family="Arial" font-size="10.00" fill="#ff0000">6×</text>
</g>
<!-- 84 -->
<g id="node5" class="node">
<title>84</title>
<g id="a_node5"><a xlink:title="/home/atom/anaconda3/lib/python3.7/site&#45;packages/_pytest/runner.py">
<polygon fill="#ff0000" stroke="#ff0000" points="505,-512 363,-512 363,-460 505,-460 505,-512"/>
<text text-anchor="middle" x="434" y="-500" font-family="Arial" font-size="10.00" fill="#ffffff">runner:185:call_runtest_hook</text>
<text text-anchor="middle" x="434" y="-489" font-family="Arial" font-size="10.00" fill="#ffffff">99.98%</text>
<text text-anchor="middle" x="434" y="-478" font-family="Arial" font-size="10.00" fill="#ffffff">(0.00%)</text>
<text text-anchor="middle" x="434" y="-467" font-family="Arial" font-size="10.00" fill="#ffffff">6×</text>
</a>
</g>
</g>
<!-- 84&#45;&gt;25 -->
<g id="edge3" class="edge">
<title>84&#45;&gt;25</title>
<path fill="none" stroke="#ff0000" stroke-width="4" d="M434,-459.8826C434,-450.6565 434,-440.1091 434,-430.1983"/>
<polygon fill="#ff0000" stroke="#ff0000" stroke-width="4" points="437.5001,-430.1827 434,-420.1827 430.5001,-430.1828 437.5001,-430.1827"/>
<text text-anchor="middle" x="451" y="-443" font-family="Arial" font-size="10.00" fill="#ff0000">99.98%</text>
<text text-anchor="middle" x="451" y="-432" font-family="Arial" font-size="10.00" fill="#ff0000">6×</text>
</g>
<!-- 85 -->
<g id="node6" class="node">
<title>85</title>
<g id="a_node6"><a xlink:title="/home/atom/anaconda3/lib/python3.7/site&#45;packages/_pytest/python.py">
<polygon fill="#ff0000" stroke="#ff0000" points="216.5,-420 67.5,-420 67.5,-368 216.5,-368 216.5,-420"/>
<text text-anchor="middle" x="142" y="-408" font-family="Arial" font-size="10.00" fill="#ffffff">python:151:pytest_pyfunc_call</text>
<text text-anchor="middle" x="142" y="-397" font-family="Arial" font-size="10.00" fill="#ffffff">99.96%</text>
<text text-anchor="middle" x="142" y="-386" font-family="Arial" font-size="10.00" fill="#ffffff">(0.00%)</text>
<text text-anchor="middle" x="142" y="-375" font-family="Arial" font-size="10.00" fill="#ffffff">3×</text>
</a>
</g>
</g>
<!-- 85&#45;&gt;5 -->
<g id="edge4" class="edge">
<title>85&#45;&gt;5</title>
<path fill="none" stroke="#ff0000" stroke-width="4" d="M148.2455,-367.8826C150.4517,-358.6565 152.9739,-348.1091 155.3439,-338.1983"/>
<polygon fill="#ff0000" stroke="#ff0000" stroke-width="4" points="158.8171,-338.7226 157.7389,-328.1827 152.0091,-337.0945 158.8171,-338.7226"/>
<text text-anchor="middle" x="173" y="-351" font-family="Arial" font-size="10.00" fill="#ff0000">99.96%</text>
<text text-anchor="middle" x="173" y="-340" font-family="Arial" font-size="10.00" fill="#ff0000">3×</text>
</g>
<!-- 103 -->
<g id="node7" class="node">
<title>103</title>
<g id="a_node7"><a xlink:title="/home/atom/anaconda3/lib/python3.7/site&#45;packages/_pytest/runner.py">
<polygon fill="#ff0000" stroke="#ff0000" points="496.5,-696 371.5,-696 371.5,-644 496.5,-644 496.5,-696"/>
<text text-anchor="middle" x="434" y="-684" font-family="Arial" font-size="10.00" fill="#ffffff">runner:77:runtestprotocol</text>
<text text-anchor="middle" x="434" y="-673" font-family="Arial" font-size="10.00" fill="#ffffff">99.99%</text>
<text text-anchor="middle" x="434" y="-662" font-family="Arial" font-size="10.00" fill="#ffffff">(0.00%)</text>
<text text-anchor="middle" x="434" y="-651" font-family="Arial" font-size="10.00" fill="#ffffff">3×</text>
</a>
</g>
</g>
<!-- 258 -->
<g id="node8" class="node">
<title>258</title>
<g id="a_node8"><a xlink:title="/home/atom/anaconda3/lib/python3.7/site&#45;packages/_pytest/runner.py">
<polygon fill="#ff0000" stroke="#ff0000" points="499.5,-604 368.5,-604 368.5,-552 499.5,-552 499.5,-604"/>
<text text-anchor="middle" x="434" y="-592" font-family="Arial" font-size="10.00" fill="#ffffff">runner:166:call_and_report</text>
<text text-anchor="middle" x="434" y="-581" font-family="Arial" font-size="10.00" fill="#ffffff">99.99%</text>
<text text-anchor="middle" x="434" y="-570" font-family="Arial" font-size="10.00" fill="#ffffff">(0.00%)</text>
<text text-anchor="middle" x="434" y="-559" font-family="Arial" font-size="10.00" fill="#ffffff">6×</text>
</a>
</g>
</g>
<!-- 103&#45;&gt;258 -->
<g id="edge5" class="edge">
<title>103&#45;&gt;258</title>
<path fill="none" stroke="#ff0000" stroke-width="4" d="M434,-643.8826C434,-634.6565 434,-624.1091 434,-614.1983"/>
<polygon fill="#ff0000" stroke="#ff0000" stroke-width="4" points="437.5001,-614.1827 434,-604.1827 430.5001,-614.1828 437.5001,-614.1827"/>
<text text-anchor="middle" x="451" y="-627" font-family="Arial" font-size="10.00" fill="#ff0000">99.99%</text>
<text text-anchor="middle" x="451" y="-616" font-family="Arial" font-size="10.00" fill="#ff0000">6×</text>
</g>
<!-- 258&#45;&gt;84 -->
<g id="edge12" class="edge">
<title>258&#45;&gt;84</title>
<path fill="none" stroke="#ff0000" stroke-width="4" d="M434,-551.8826C434,-542.6565 434,-532.1091 434,-522.1983"/>
<polygon fill="#ff0000" stroke="#ff0000" stroke-width="4" points="437.5001,-522.1827 434,-512.1827 430.5001,-522.1828 437.5001,-522.1827"/>
<text text-anchor="middle" x="451" y="-535" font-family="Arial" font-size="10.00" fill="#ff0000">99.98%</text>
<text text-anchor="middle" x="451" y="-524" font-family="Arial" font-size="10.00" fill="#ff0000">6×</text>
</g>
<!-- 140 -->
<g id="node9" class="node">
<title>140</title>
<g id="a_node9"><a xlink:title="/home/atom/anaconda3/lib/python3.7/site&#45;packages/pluggy/callers.py">
<polygon fill="#ff0000" stroke="#ff0000" points="196,-512 88,-512 88,-460 196,-460 196,-512"/>
<text text-anchor="middle" x="142" y="-500" font-family="Arial" font-size="10.00" fill="#ffffff">callers:157:_multicall</text>
<text text-anchor="middle" x="142" y="-489" font-family="Arial" font-size="10.00" fill="#ffffff">99.99%</text>
<text text-anchor="middle" x="142" y="-478" font-family="Arial" font-size="10.00" fill="#ffffff">(0.00%)</text>
<text text-anchor="middle" x="142" y="-467" font-family="Arial" font-size="10.00" fill="#ffffff">27×</text>
</a>
</g>
</g>
<!-- 140&#45;&gt;85 -->
<g id="edge6" class="edge">
<title>140&#45;&gt;85</title>
<path fill="none" stroke="#ff0000" stroke-width="4" d="M142,-459.8826C142,-450.6565 142,-440.1091 142,-430.1983"/>
<polygon fill="#ff0000" stroke="#ff0000" stroke-width="4" points="145.5001,-430.1827 142,-420.1827 138.5001,-430.1828 145.5001,-430.1827"/>
<text text-anchor="middle" x="159" y="-443" font-family="Arial" font-size="10.00" fill="#ff0000">99.96%</text>
<text text-anchor="middle" x="159" y="-432" font-family="Arial" font-size="10.00" fill="#ff0000">3×</text>
</g>
<!-- 255 -->
<g id="node10" class="node">
<title>255</title>
<g id="a_node10"><a xlink:title="/home/atom/anaconda3/lib/python3.7/site&#45;packages/_pytest/runner.py">
<polygon fill="#ff0000" stroke="#ff0000" points="372.5,-420 225.5,-420 225.5,-368 372.5,-368 372.5,-420"/>
<text text-anchor="middle" x="299" y="-408" font-family="Arial" font-size="10.00" fill="#ffffff">runner:113:pytest_runtest_call</text>
<text text-anchor="middle" x="299" y="-397" font-family="Arial" font-size="10.00" fill="#ffffff">99.96%</text>
<text text-anchor="middle" x="299" y="-386" font-family="Arial" font-size="10.00" fill="#ffffff">(0.00%)</text>
<text text-anchor="middle" x="299" y="-375" font-family="Arial" font-size="10.00" fill="#ffffff">3×</text>
</a>
</g>
</g>
<!-- 140&#45;&gt;255 -->
<g id="edge7" class="edge">
<title>140&#45;&gt;255</title>
<path fill="none" stroke="#ff0000" stroke-width="4" d="M186.5699,-459.8826C205.0447,-449.0566 226.6243,-436.4112 245.9102,-425.1099"/>
<polygon fill="#ff0000" stroke="#ff0000" stroke-width="4" points="247.7323,-428.099 254.5905,-420.0234 244.1932,-422.0595 247.7323,-428.099"/>
<text text-anchor="middle" x="257" y="-443" font-family="Arial" font-size="10.00" fill="#ff0000">99.96%</text>
<text text-anchor="middle" x="257" y="-432" font-family="Arial" font-size="10.00" fill="#ff0000">3×</text>
</g>
<!-- 275 -->
<g id="node15" class="node">
<title>275</title>
<g id="a_node15"><a xlink:title="/home/atom/anaconda3/lib/python3.7/site&#45;packages/_pytest/python.py">
<polygon fill="#ff0000" stroke="#ff0000" points="357.5,-328 254.5,-328 254.5,-276 357.5,-276 357.5,-328"/>
<text text-anchor="middle" x="306" y="-316" font-family="Arial" font-size="10.00" fill="#ffffff">python:1449:runtest</text>
<text text-anchor="middle" x="306" y="-305" font-family="Arial" font-size="10.00" fill="#ffffff">99.96%</text>
<text text-anchor="middle" x="306" y="-294" font-family="Arial" font-size="10.00" fill="#ffffff">(0.00%)</text>
<text text-anchor="middle" x="306" y="-283" font-family="Arial" font-size="10.00" fill="#ffffff">3×</text>
</a>
</g>
</g>
<!-- 255&#45;&gt;275 -->
<g id="edge11" class="edge">
<title>255&#45;&gt;275</title>
<path fill="none" stroke="#ff0000" stroke-width="4" d="M300.9872,-367.8826C301.6892,-358.6565 302.4917,-348.1091 303.2458,-338.1983"/>
<polygon fill="#ff0000" stroke="#ff0000" stroke-width="4" points="306.739,-338.4195 304.0078,-328.1827 299.7592,-337.8883 306.739,-338.4195"/>
<text text-anchor="middle" x="321" y="-351" font-family="Arial" font-size="10.00" fill="#ff0000">99.96%</text>
<text text-anchor="middle" x="321" y="-340" font-family="Arial" font-size="10.00" fill="#ff0000">3×</text>
</g>
<!-- 192 -->
<g id="node11" class="node">
<title>192</title>
<g id="a_node11"><a xlink:title="/home/atom/anaconda3/lib/python3.7/site&#45;packages/pluggy/manager.py">
<polygon fill="#ff0000" stroke="#ff0000" points="114,-52 0,-52 0,0 114,0 114,-52"/>
<text text-anchor="middle" x="57" y="-40" font-family="Arial" font-size="10.00" fill="#ffffff">manager:78:&lt;lambda&gt;</text>
<text text-anchor="middle" x="57" y="-29" font-family="Arial" font-size="10.00" fill="#ffffff">99.99%</text>
<text text-anchor="middle" x="57" y="-18" font-family="Arial" font-size="10.00" fill="#ffffff">(0.00%)</text>
<text text-anchor="middle" x="57" y="-7" font-family="Arial" font-size="10.00" fill="#ffffff">27×</text>
</a>
</g>
</g>
<!-- 192&#45;&gt;140 -->
<g id="edge8" class="edge">
<title>192&#45;&gt;140</title>
<path fill="none" stroke="#ff0000" stroke-width="4" d="M53.0787,-52.1064C50.6533,-70.4867 48,-95.6926 48,-118 48,-394 48,-394 48,-394 48,-418.5855 64.6267,-438.7641 83.8946,-453.8938"/>
<polygon fill="#ff0000" stroke="#ff0000" stroke-width="4" points="81.8489,-456.734 91.9726,-459.8583 86.0068,-451.1027 81.8489,-456.734"/>
<text text-anchor="middle" x="65" y="-259" font-family="Arial" font-size="10.00" fill="#ff0000">99.99%</text>
<text text-anchor="middle" x="65" y="-248" font-family="Arial" font-size="10.00" fill="#ff0000">15×</text>
</g>
<!-- 329 -->
<g id="node13" class="node">
<title>329</title>
<g id="a_node13"><a xlink:title="/home/atom/anaconda3/lib/python3.7/site&#45;packages/pluggy/manager.py">
<polygon fill="#ff0000" stroke="#ff0000" points="417,-144 299,-144 299,-92 417,-92 417,-144"/>
<text text-anchor="middle" x="358" y="-132" font-family="Arial" font-size="10.00" fill="#ffffff">manager:84:_hookexec</text>
<text text-anchor="middle" x="358" y="-121" font-family="Arial" font-size="10.00" fill="#ffffff">99.99%</text>
<text text-anchor="middle" x="358" y="-110" font-family="Arial" font-size="10.00" fill="#ffffff">(0.00%)</text>
<text text-anchor="middle" x="358" y="-99" font-family="Arial" font-size="10.00" fill="#ffffff">27×</text>
</a>
</g>
</g>
<!-- 196&#45;&gt;329 -->
<g id="edge9" class="edge">
<title>196&#45;&gt;329</title>
<path fill="none" stroke="#ff0000" stroke-width="4" d="M358,-183.8826C358,-174.6565 358,-164.1091 358,-154.1983"/>
<polygon fill="#ff0000" stroke="#ff0000" stroke-width="4" points="361.5001,-154.1827 358,-144.1827 354.5001,-154.1828 361.5001,-154.1827"/>
<text text-anchor="middle" x="375" y="-167" font-family="Arial" font-size="10.00" fill="#ff0000">99.99%</text>
<text text-anchor="middle" x="375" y="-156" font-family="Arial" font-size="10.00" fill="#ff0000">15×</text>
</g>
<!-- 329&#45;&gt;192 -->
<g id="edge16" class="edge">
<title>329&#45;&gt;192</title>
<path fill="none" stroke="#ff0000" stroke-width="4" d="M298.8134,-93.678C297.1958,-93.1026 295.5891,-92.5421 294,-92 237.3902,-72.6893 171.795,-54.7558 123.9847,-42.4713"/>
<polygon fill="#ff0000" stroke="#ff0000" stroke-width="4" points="124.6172,-39.0205 114.0621,-39.9372 122.8851,-45.8029 124.6172,-39.0205"/>
<text text-anchor="middle" x="280" y="-75" font-family="Arial" font-size="10.00" fill="#ff0000">99.99%</text>
<text text-anchor="middle" x="280" y="-64" font-family="Arial" font-size="10.00" fill="#ff0000">15×</text>
</g>
<!-- 275&#45;&gt;196 -->
<g id="edge14" class="edge">
<title>275&#45;&gt;196</title>
<path fill="none" stroke="#ff0000" stroke-width="4" d="M320.762,-275.8826C326.1963,-266.2681 332.4417,-255.2186 338.2457,-244.95"/>
<polygon fill="#ff0000" stroke="#ff0000" stroke-width="4" points="341.3274,-246.6106 343.2011,-236.1827 335.2335,-243.1661 341.3274,-246.6106"/>
<text text-anchor="middle" x="356" y="-259" font-family="Arial" font-size="10.00" fill="#ff0000">99.96%</text>
<text text-anchor="middle" x="356" y="-248" font-family="Arial" font-size="10.00" fill="#ff0000">3×</text>
</g>
<!-- 279 -->
<g id="node16" class="node">
<title>279</title>
<g id="a_node16"><a xlink:title="/home/atom/anaconda3/lib/python3.7/site&#45;packages/_pytest/runner.py">
<polygon fill="#ff0000" stroke="#ff0000" points="515,-788 353,-788 353,-736 515,-736 515,-788"/>
<text text-anchor="middle" x="434" y="-776" font-family="Arial" font-size="10.00" fill="#ffffff">runner:70:pytest_runtest_protocol</text>
<text text-anchor="middle" x="434" y="-765" font-family="Arial" font-size="10.00" fill="#ffffff">100.00%</text>
<text text-anchor="middle" x="434" y="-754" font-family="Arial" font-size="10.00" fill="#ffffff">(0.00%)</text>
<text text-anchor="middle" x="434" y="-743" font-family="Arial" font-size="10.00" fill="#ffffff">3×</text>
</a>
</g>
</g>
<!-- 279&#45;&gt;103 -->
<g id="edge15" class="edge">
<title>279&#45;&gt;103</title>
<path fill="none" stroke="#ff0000" stroke-width="4" d="M434,-735.8826C434,-726.6565 434,-716.1091 434,-706.1983"/>
<polygon fill="#ff0000" stroke="#ff0000" stroke-width="4" points="437.5001,-706.1827 434,-696.1827 430.5001,-706.1828 437.5001,-706.1827"/>
<text text-anchor="middle" x="451" y="-719" font-family="Arial" font-size="10.00" fill="#ff0000">99.99%</text>
<text text-anchor="middle" x="451" y="-708" font-family="Arial" font-size="10.00" fill="#ff0000">3×</text>
</g>
</g>
</svg>
